<svg xmlns="http://www.w3.org/2000/svg" xmlns:xlink="http://www.w3.org/1999/xlink" width="820" height="820" version="1.1" style="shape-rendering:geometricPrecision;text-rendering:geometricPrecision;image-rendering:optimizeQuality;fill-rule:evenodd;clip-rule:evenodd"><g><path style="opacity:.989" fill="#71717a" d="M 563.5,666.5 C 563.5,529.833 563.5,393.167 563.5,256.5C 461.167,256.5 358.833,256.5 256.5,256.5C 256.5,393.167 256.5,529.833 256.5,666.5C 222.167,666.5 187.833,666.5 153.5,666.5C 153.5,495.5 153.5,324.5 153.5,153.5C 290.5,153.5 427.5,153.5 564.5,153.5C 564.5,187.5 564.5,221.5 564.5,255.5C 598.5,255.5 632.5,255.5 666.5,255.5C 666.5,392.5 666.5,529.5 666.5,666.5C 632.167,666.5 597.833,666.5 563.5,666.5 Z"/></g><g><path style="opacity:.004" fill="#71717a" d="M 256.5,666.5 C 257.833,667.167 257.833,667.167 256.5,666.5 Z"/></g><g><path style="opacity:.004" fill="#71717a" d="M 563.5,666.5 C 562.833,667.167 562.833,667.167 563.5,666.5 Z"/></g></svg>