<svg xmlns="http://www.w3.org/2000/svg" version="1.0" width="2048.000000pt" height="2048.000000pt" viewBox="0 0 2048.000000 2048.000000" preserveAspectRatio="xMidYMid meet">

<g transform="translate(0.000000,2048.000000) scale(0.100000,-0.100000)" fill="#98CF93" stroke="none">
<path d="M9750 20469 c-2219 -106 -4337 -929 -6050 -2353 -256 -213 -409 -353 -696 -640 -509 -510 -870 -945 -1256 -1516 -315 -466 -648 -1064 -862 -1550 -415 -939 -682 -1899 -806 -2894 -246 -1985 79 -3955 949 -5751 624 -1288 1540 -2456 2666 -3396 1211 -1012 2670 -1741 4200 -2098 1347 -314 2725 -355 4095 -120 808 138 1625 384 2385 719 187 83 606 290 780 385 673 371 1315 826 1910 1353 183 163 685 668 846 852 1179 1348 1957 2878 2333 4590 214 973 284 2040 200 3045 -185 2218 -1074 4284 -2568 5965 -157 176 -534 558 -711 720 -1352 1237 -2961 2075 -4730 2464 -853 187 -1800 267 -2685 225z m1035 -1030 c1940 -111 3787 -833 5295 -2068 469 -384 964 -884 1339 -1351 1142 -1423 1823 -3100 1996 -4910 28 -300 38 -518 38 -870 0 -961 -132 -1833 -414 -2745 -351 -1138 -951 -2240 -1718 -3155 -288 -344 -680 -746 -986 -1014 -1295 -1133 -2818 -1867 -4480 -2160 -549 -97 -1029 -138 -1610 -139 -727 0 -1376 72 -2065 229 -1604 367 -3060 1146 -4270 2285 -1094 1030 -1934 2344 -2411 3771 -587 1759 -630 3683 -122 5458 244 854 607 1664 1078 2405 543 855 1236 1629 2025 2260 898 719 1933 1270 3015 1604 820 254 1622 386 2510 415 149 5 586 -3 780 -15z" fill="#98CF93"/>
<path d="M16135 13731 c-44 -5 -133 -14 -197 -21 l-118 -13 0 -76 c0 -275 81 -3666 87 -3672 4 -4 62 -16 128 -26 171 -25 549 -25 740 1 77 10 143 21 148 25 8 8 85 3737 77 3744 -29 29 -671 56 -865 38z" fill="#98CF93"/>
<path d="M4928 12240 c-411 -35 -724 -156 -1019 -396 -458 -373 -699 -1011 -676 -1789 12 -400 82 -697 238 -1010 92 -185 177 -303 329 -456 185 -185 357 -293 606 -379 244 -84 477 -115 802 -107 361 9 557 52 834 186 325 156 594 423 758 751 173 345 262 842 232 1293 -50 746 -317 1279 -803 1603 -301 201 -619 296 -1034 308 -88 2 -208 1 -267 -4z m457 -883 c100 -33 166 -71 237 -136 219 -200 329 -657 297 -1237 -31 -579 -201 -915 -517 -1018 -213 -70 -464 -54 -644 41 -216 113 -355 389 -403 797 -18 157 -21 525 -5 668 54 486 209 767 480 869 106 40 167 49 325 45 129 -3 161 -7 230 -29z" fill="#98CF93"/>
<path d="M9105 12234 c-16 -2 -73 -9 -125 -15 -285 -32 -566 -133 -765 -274 -128 -92 -266 -251 -335 -385 -84 -165 -120 -338 -120 -569 0 -376 92 -608 308 -782 208 -167 379 -241 834 -359 373 -96 511 -152 597 -240 94 -97 105 -303 22 -423 -87 -127 -283 -212 -546 -238 -136 -13 -369 0 -528 31 -122 24 -337 85 -451 129 -44 17 -81 29 -84 27 -14 -15 -89 -210 -126 -330 -51 -162 -83 -309 -92 -419 l-7 -74 169 -56 c294 -98 495 -139 777 -158 387 -26 754 11 1017 103 539 190 859 519 955 985 37 177 29 427 -20 617 -85 335 -310 565 -695 709 -52 19 -230 76 -396 126 -165 49 -335 104 -378 121 -81 32 -169 84 -198 116 -63 71 -81 232 -38 331 58 135 208 200 480 210 150 6 294 -5 428 -33 63 -12 402 -121 463 -148 12 -5 24 10 52 72 81 178 158 463 173 644 l7 74 -164 52 c-238 75 -379 106 -621 138 -116 14 -527 27 -593 18z" fill="#98CF93"/>
<path d="M11535 12170 c-88 -11 -165 -22 -172 -25 -16 -6 -18 -2116 -3 -2380 28 -456 121 -780 307 -1058 152 -229 383 -397 683 -497 284 -95 835 -142 1288 -109 302 21 687 92 1035 191 l147 41 0 1907 0 1907 -122 17 c-244 35 -582 32 -870 -6 l-88 -12 -2 -1550 -3 -1550 -30 -8 c-138 -38 -439 -57 -608 -39 -189 21 -314 71 -419 170 -76 71 -121 143 -159 254 -77 223 -79 267 -79 1578 0 903 -3 1141 -12 1144 -52 20 -256 37 -478 40 -210 4 -283 1 -415 -15z" fill="#98CF93"/>
<path d="M16215 9354 c-74 -6 -316 -34 -346 -40 -25 -5 -27 -9 -44 -127 -26 -187 -31 -534 -10 -742 9 -93 20 -190 23 -215 l7 -45 95 -12 c354 -44 565 -43 972 3 66 8 60 -5 84 179 24 183 24 570 0 765 -21 177 -24 188 -44 194 -85 26 -577 53 -737 40z" fill="#98CF93"/>
</g>
</svg>