<svg xmlns="http://www.w3.org/2000/svg" width="240" height="240" preserveAspectRatio="xMidYMid meet" version="1.0" viewBox="0 0 180 180"><metadata>Created by potrace 1.14, written by Peter Selinger 2001-2017</metadata><g fill="#000" stroke="none"><path d="M88 1771 c-30 -19 -52 -44 -67 -74 l-22 -45 3 -769 3 -769 23 -29 c13 -16 39 -41 59 -55 l36 -25 777 0 776 0 41 27 c25 16 49 44 62 71 21 44 21 44 18 808 -2 420 -5 770 -7 776 -3 13 -52 66 -86 93 -16 13 -122 15 -794 18 l-776 2 -46 -29z" transform="translate(0.000000,180.000000) scale(0.100000,-0.100000)"/></g></svg>