<?xml version="1.0" standalone="no"?>
<!DOCTYPE svg PUBLIC "-//W3C//DTD SVG 20010904//EN"
 "http://www.w3.org/TR/2001/REC-SVG-20010904/DTD/svg10.dtd">
<svg version="1.0" xmlns="http://www.w3.org/2000/svg"
 width="180.000000pt" height="180.000000pt" viewBox="0 0 180.000000 180.000000"
 preserveAspectRatio="xMidYMid meet">
<metadata>
Created by potrace 1.14, written by Peter Selinger 2001-2017
</metadata>
<g transform="translate(0.000000,180.000000) scale(0.100000,-0.100000)"
fill="#000000" stroke="none">
<path d="M88 1771 c-30 -19 -52 -44 -67 -74 l-22 -45 3 -769 3 -769 23 -29
c13 -16 39 -41 59 -55 l36 -25 777 0 776 0 41 27 c25 16 49 44 62 71 21 44 21
44 18 808 -2 420 -5 770 -7 776 -3 13 -52 66 -86 93 -16 13 -122 15 -794 18
l-776 2 -46 -29z"/>
</g>
</svg>
