<?xml version="1.0" standalone="no"?>
<!DOCTYPE svg PUBLIC "-//W3C//DTD SVG 20010904//EN"
 "http://www.w3.org/TR/2001/REC-SVG-20010904/DTD/svg10.dtd">
<svg version="1.0" xmlns="http://www.w3.org/2000/svg"
 width="255.000000pt" height="255.000000pt" viewBox="0 0 255.000000 255.000000"
 preserveAspectRatio="xMidYMid meet">
<metadata>
Created by potrace 1.14, written by Peter Selinger 2001-2017
</metadata>
<g transform="translate(0.000000,255.000000) scale(0.100000,-0.100000)"
fill="#000000" stroke="none">
<path d="M1135 2539 c-74 -8 -271 -52 -283 -63 -2 -3 5 -16 16 -30 10 -14 22
-22 26 -18 4 3 4 -1 0 -11 -3 -10 -1 -17 5 -17 7 0 16 -10 21 -22 5 -13 9 -17
9 -9 1 9 11 3 29 -15 27 -29 29 -33 31 -66 0 -10 8 -18 16 -18 9 0 12 -6 9
-15 -4 -8 -2 -15 2 -16 5 0 22 -3 37 -5 16 -3 34 0 41 5 7 6 16 8 19 4 8 -7
77 28 77 39 0 5 13 8 29 8 17 0 33 5 36 10 3 6 24 10 45 10 29 0 42 -5 50 -19
15 -29 13 -61 -4 -55 -10 4 -16 -2 -18 -17 -2 -13 -14 -29 -28 -36 -24 -12
-23 -15 10 -17 18 -1 21 -83 4 -100 -9 -10 -20 -39 -25 -71 -1 -5 -5 -20 -10
-33 -5 -12 -11 -34 -13 -47 -3 -14 -12 -32 -20 -41 -15 -14 -15 -35 0 -81 2
-7 12 -13 23 -13 12 0 24 -11 33 -30 7 -16 18 -30 24 -30 17 0 24 -61 8 -67
-7 -3 -16 -13 -19 -24 -5 -14 -11 -17 -23 -10 -12 6 -24 4 -40 -10 -46 -36
-164 -53 -175 -25 -7 18 9 32 45 41 40 10 60 39 66 93 7 74 -17 115 -80 141
-65 27 -91 26 -158 -5 -59 -27 -120 -27 -120 1 0 8 -7 16 -15 17 -8 0 -21 1
-27 2 -7 1 -12 -7 -10 -16 2 -10 -2 -18 -9 -18 -24 0 -89 24 -89 32 0 12 120
128 132 128 5 0 7 4 4 9 -3 4 -6 31 -7 59 -2 38 -6 52 -18 54 -12 3 -16 18
-17 68 -1 87 -15 215 -24 231 -6 9 -24 4 -72 -21 -102 -53 -212 -137 -311
-239 -120 -125 -194 -230 -123 -176 11 8 28 15 39 15 10 0 30 9 44 20 33 26
127 27 177 3 56 -26 51 -38 -19 -39 -71 -1 -120 -27 -131 -70 -5 -17 -10 -22
-18 -15 -13 11 -56 4 -56 -9 0 -4 7 -10 15 -14 8 -3 15 -11 15 -19 0 -21 -61
-61 -95 -61 -21 -1 -33 -8 -40 -24 -5 -12 -16 -20 -23 -17 -7 3 -10 1 -7 -4 3
-6 -3 -14 -12 -20 -13 -7 -15 -13 -7 -18 7 -5 10 -21 7 -38 -2 -16 -5 -37 -7
-45 -1 -9 -4 -20 -8 -25 -10 -19 -1 -59 17 -70 46 -27 66 -53 59 -79 -3 -14
-10 -26 -15 -26 -4 0 -16 -16 -25 -35 -13 -27 -21 -34 -35 -30 -14 5 -19 1
-19 -13 0 -11 -7 -22 -15 -26 -23 -8 -18 -25 19 -62 l34 -34 -26 -1 c-15 -1
-44 -2 -64 -2 -35 -1 -38 -3 -38 -30 0 -26 3 -29 23 -23 12 3 36 6 54 6 22 0
40 9 56 26 20 22 30 25 56 19 42 -9 48 -23 14 -31 -65 -14 -129 -37 -139 -50
-6 -8 -19 -12 -27 -8 -12 4 -17 -3 -22 -29 -11 -58 64 -324 101 -362 9 -8 13
-18 10 -23 -2 -4 4 -18 13 -31 14 -18 20 -21 26 -11 6 9 4 11 -5 5 -9 -5 -11
-4 -6 4 4 6 12 9 17 5 5 -3 7 -10 4 -15 -4 -5 1 -9 10 -9 9 0 13 -5 10 -11 -4
-6 -13 -8 -21 -5 -20 8 -17 -8 6 -29 11 -10 20 -13 20 -7 0 6 7 9 15 6 10 -4
13 -2 10 7 -4 11 8 13 60 11 36 -2 63 -8 60 -12 -3 -5 -13 -6 -23 -3 -14 6
-15 4 -4 -9 10 -13 9 -18 -5 -29 -11 -9 -14 -10 -9 -1 10 17 -24 15 -49 -4
-19 -14 -19 -16 -2 -28 9 -7 17 -18 17 -25 0 -6 8 -11 18 -11 9 0 26 -8 37
-17 16 -13 17 -15 3 -10 -21 7 -22 6 -6 -27 9 -22 14 -24 26 -13 13 10 14 9 3
-10 -11 -21 -5 -30 75 -109 66 -67 88 -84 95 -73 7 11 9 11 9 -4 0 -21 111
-95 216 -143 108 -49 225 -80 414 -109 49 -7 55 8 26 67 -14 30 -34 86 -43
125 l-17 71 -35 -4 -36 -4 38 11 c41 12 51 39 14 39 -23 0 -155 -31 -188 -45
-9 -3 -23 1 -33 10 -9 9 -16 12 -16 6 0 -6 -9 -11 -20 -11 -24 0 -43 39 -28
58 8 9 3 12 -21 12 -21 0 -35 7 -46 24 -9 13 -24 26 -34 29 -15 3 -17 0 -13
-17 5 -20 5 -20 -19 -5 -13 9 -25 22 -25 28 -1 6 -2 16 -3 22 0 5 -5 8 -10 4
-5 -3 -13 0 -16 6 -4 5 -13 8 -21 5 -8 -3 -14 1 -14 9 0 8 -7 15 -15 15 -8 0
-15 7 -15 15 0 14 -11 19 -36 16 -6 -1 -17 6 -24 14 -7 8 -23 15 -36 15 -29 0
-38 14 -19 30 8 7 15 20 14 29 0 10 -4 6 -10 -9 -8 -19 -12 -21 -18 -11 -5 7
-13 11 -18 8 -5 -3 -15 -2 -22 2 -9 6 -5 10 13 15 16 4 24 11 20 17 -4 8 -9 7
-14 -1 -6 -9 -15 -10 -36 -2 -16 6 -23 11 -16 11 7 1 11 5 8 9 -3 5 1 9 9 9 8
0 12 -4 9 -9 -3 -4 0 -8 5 -8 6 0 11 5 11 10 0 6 0 13 0 18 0 4 -8 7 -18 8
-10 1 -31 8 -47 17 -26 14 -27 16 -9 17 14 0 24 8 27 22 5 17 9 19 20 10 10
-9 17 -8 27 1 7 6 10 7 7 2 -8 -15 82 -50 94 -38 7 7 3 40 -11 98 -12 48 -20
88 -18 90 2 1 13 8 26 14 20 11 30 6 94 -39 68 -47 108 -62 108 -40 0 5 -16
22 -36 37 -20 15 -51 40 -67 54 l-31 27 39 19 c65 33 96 38 48 8 -48 -29 -51
-35 -26 -57 68 -58 113 -67 158 -33 16 13 17 17 6 25 -9 5 -22 3 -35 -5 -18
-12 -25 -12 -54 6 -40 26 -40 34 -1 51 29 12 30 15 24 54 -9 64 9 125 47 156
18 15 40 33 48 40 9 7 33 22 54 33 21 11 44 29 52 40 8 11 18 20 22 20 4 1 23
11 42 23 19 12 51 27 70 32 62 17 207 1 315 -34 6 -2 14 -4 19 -4 5 0 13 -6
17 -14 7 -10 9 -10 9 0 0 10 5 10 20 2 25 -13 25 -22 1 -37 -16 -10 -23 -8
-46 13 -14 13 -31 21 -37 18 -6 -4 -6 -9 3 -15 11 -6 10 -12 -4 -27 -9 -10
-17 -25 -17 -32 0 -9 -6 -8 -20 5 -17 15 -20 16 -20 2 0 -9 -7 -14 -17 -13
-24 4 -75 -23 -99 -53 -17 -19 -20 -31 -13 -48 6 -17 5 -23 -4 -23 -7 0 -19
-16 -26 -35 -7 -19 -17 -35 -22 -35 -6 0 -8 -4 -5 -8 3 -5 -4 -14 -14 -22 -20
-15 -18 -30 5 -30 8 0 12 6 9 14 -4 11 0 13 16 9 41 -11 52 -106 16 -140 -10
-10 -16 -12 -12 -5 4 6 2 12 -4 12 -6 0 -23 9 -39 21 -24 18 -31 19 -57 7 -16
-7 -33 -18 -37 -25 -4 -7 -15 -13 -23 -13 -8 0 -28 -14 -45 -31 l-31 -31 -29
28 c-17 17 -28 37 -27 48 2 13 -4 22 -16 24 -14 3 -17 0 -13 -12 3 -8 -3 -35
-13 -58 -54 -120 6 -232 183 -342 84 -52 109 -52 82 0 -8 16 -15 44 -15 62 0
38 19 120 29 127 4 2 20 -3 35 -11 16 -7 37 -14 47 -14 11 0 19 -4 19 -10 0
-5 12 -13 28 -16 15 -4 36 -13 48 -21 12 -7 29 -11 38 -7 10 4 18 0 22 -11 4
-9 13 -14 21 -11 8 4 22 -3 32 -15 10 -12 29 -21 44 -21 15 0 24 -4 21 -9 -3
-5 2 -12 10 -15 9 -3 13 -11 10 -18 -3 -6 3 -1 13 12 17 20 20 21 38 8 19 -15
19 -15 1 -16 -17 0 -15 -13 2 -16 26 -4 71 -28 66 -35 -9 -15 3 -10 21 8 14
13 18 14 25 2 5 -8 5 -16 -2 -20 -7 -4 -6 -9 2 -14 7 -4 16 -2 20 5 6 10 13 7
26 -10 11 -12 29 -26 42 -31 12 -5 22 -16 22 -26 0 -15 2 -16 10 -3 6 9 10 11
10 3 0 -7 6 -10 13 -8 18 7 79 -33 71 -47 -4 -7 -3 -8 4 -4 14 9 50 -10 79
-40 l22 -23 60 40 c34 22 96 75 139 117 371 363 493 926 300 1384 -11 26 -29
50 -39 53 -14 5 -18 12 -13 31 9 36 -77 178 -173 285 l-34 37 -47 -24 c-59
-30 -77 -32 -60 -5 7 11 16 17 20 15 4 -3 8 0 8 6 0 6 3 9 8 6 4 -2 18 1 31 8
23 13 22 14 -48 77 -184 167 -446 281 -712 309 -113 11 -148 11 -264 -1z m349
-307 c3 -5 -6 -25 -20 -46 -14 -20 -22 -41 -19 -46 3 -5 -3 -17 -12 -27 -36
-36 -68 -76 -55 -69 6 4 12 6 12 4 0 -7 -27 -75 -40 -100 -16 -34 -35 -37 -25
-5 31 99 51 181 54 227 1 18 13 31 44 47 48 25 54 26 61 15z m409 -22 c26 -31
7 -60 -35 -55 -21 3 -39 -2 -50 -12 -10 -9 -18 -12 -18 -7 0 5 -12 10 -27 11
-17 1 -21 -2 -13 -7 7 -5 10 -17 7 -30 -5 -19 -3 -20 11 -8 15 12 16 11 4 -4
-8 -9 -28 -18 -45 -20 -23 -2 -31 -8 -29 -19 1 -9 -11 -42 -27 -74 -25 -49
-30 -54 -33 -34 -4 24 -4 24 -18 -4 -12 -25 -15 -27 -26 -13 -17 24 -3 76 35
128 26 37 37 44 62 42 25 -2 29 1 25 19 -10 54 -17 64 -42 59 -15 -3 -24 0
-24 8 0 9 14 10 50 6 37 -5 57 -2 74 9 13 9 30 13 39 10 8 -4 18 -2 22 4 10
17 39 13 58 -9z m-253 -37 c0 -14 -6 -23 -16 -23 -8 0 -21 -15 -29 -34 -14
-34 -45 -56 -45 -33 0 7 10 35 22 64 19 42 27 52 46 50 16 -1 22 -8 22 -24z
m-170 -83 c0 -5 -7 -10 -16 -10 -8 0 -12 5 -9 10 3 6 10 10 16 10 5 0 9 -4 9
-10z m248 -45 c-3 -3 -9 2 -12 12 -6 14 -5 15 5 6 7 -7 10 -15 7 -18z m-206
-59 c-2 -20 -9 -36 -14 -36 -6 0 -8 11 -4 28 4 15 7 32 8 39 1 7 4 10 8 8 3
-2 4 -20 2 -39z m-862 -26 c0 -5 7 -10 16 -10 23 0 13 -41 -13 -51 -18 -7 -27
-1 -53 31 l-32 40 41 0 c23 0 41 -4 41 -10z m1185 -69 c8 -14 -13 -24 -33 -16
-14 5 -14 7 -2 15 19 12 27 12 35 1z m-999 -81 c16 -14 19 -51 5 -65 -16 -18
7 -72 34 -79 14 -4 25 -11 25 -16 0 -6 7 -10 15 -10 8 0 15 -3 15 -8 0 -15
-36 -28 -72 -27 -20 1 -35 -2 -32 -7 3 -4 -2 -8 -10 -8 -9 0 -16 -7 -16 -16 0
-12 -6 -15 -23 -10 -21 5 -23 3 -19 -29 4 -31 1 -35 -18 -35 -17 0 -21 -5 -18
-27 2 -19 11 -29 33 -36 41 -13 75 -46 75 -73 0 -18 -7 -23 -37 -27 -56 -6
-70 5 -83 70 -6 32 -21 76 -32 98 l-21 41 27 52 c15 29 34 60 44 70 9 9 18 33
19 52 1 19 4 46 6 60 3 14 5 31 6 38 1 16 54 10 77 -8z m164 -34 c0 -3 -4 -8
-10 -11 -5 -3 -10 -1 -10 4 0 6 5 11 10 11 6 0 10 -2 10 -4z m1030 -256 c-20
-13 -33 -13 -25 0 3 6 14 10 23 10 15 0 15 -2 2 -10z m-40 -14 c0 -22 -24 -36
-68 -40 -55 -5 -51 14 8 35 58 21 60 21 60 5z m-1200 -56 c0 -5 -7 -10 -16
-10 -8 0 -12 5 -9 10 3 6 10 10 16 10 5 0 9 -4 9 -10z m-376 -612 c-4 -22 -3
-29 4 -20 7 11 11 10 16 -4 4 -10 1 -21 -6 -25 -15 -10 -69 17 -65 33 3 18 21
37 30 31 4 -2 7 1 7 6 0 6 4 11 10 11 5 0 7 -14 4 -32z m-47 16 c-3 -3 -12 -4
-19 -1 -8 3 -5 6 6 6 11 1 17 -2 13 -5z m-47 -8 c0 -2 -8 -10 -17 -17 -16 -13
-17 -12 -4 4 13 16 21 21 21 13z m0 -47 c13 -9 13 -10 -1 -6 -9 3 -22 0 -28
-6 -9 -9 -11 -8 -6 6 8 20 14 21 35 6z m127 -45 c-9 -9 -28 6 -21 18 4 6 10 6
17 -1 6 -6 8 -13 4 -17z m-91 -1 c-2 -10 1 -21 6 -24 5 -3 2 -12 -7 -19 -11
-9 -15 -9 -15 -1 0 7 -5 9 -11 5 -8 -5 -8 -1 0 13 7 14 7 23 -1 31 -9 9 -7 12
9 12 15 0 20 -6 19 -17z m54 -25 c0 -12 -6 -9 -26 13 -19 22 -19 22 4 8 12 -8
22 -17 22 -21z m575 -128 c3 -6 -1 -7 -9 -4 -18 7 -21 14 -7 14 6 0 13 -4 16
-10z m-695 -30 c0 -5 -4 -10 -10 -10 -5 0 -10 5 -10 10 0 6 5 10 10 10 6 0 10
-4 10 -10z m230 -74 c0 -3 -4 -8 -10 -11 -5 -3 -10 -1 -10 4 0 6 5 11 10 11 6
0 10 -2 10 -4z m60 -81 c0 -8 -7 -15 -15 -15 -8 0 -15 7 -15 15 0 8 7 15 15
15 8 0 15 -7 15 -15z m84 -20 c-7 -16 -24 -21 -24 -6 0 8 7 13 27 20 1 1 0 -6
-3 -14z m140 -116 c-3 -5 0 -17 7 -25 10 -12 9 -13 -5 -8 -9 3 -16 17 -16 31
0 14 4 22 10 18 6 -4 8 -11 4 -16z m-44 2 c0 -5 -9 -7 -20 -4 -11 3 -20 7 -20
9 0 2 9 4 20 4 11 0 20 -4 20 -9z m51 -49 c14 -6 15 -9 3 -20 -13 -12 -15 -11
-13 5 0 4 -8 10 -18 14 -12 5 -13 8 -3 8 8 0 22 -3 31 -7z m66 2 c-3 -3 -12
-4 -19 -1 -8 3 -5 6 6 6 11 1 17 -2 13 -5z"/>
<path d="M377 826 c-3 -8 0 -16 6 -19 7 -3 13 3 13 14 0 22 -12 25 -19 5z"/>
<path d="M812 2428 c2 -13 11 -24 23 -27 17 -3 18 -1 6 13 -11 14 -11 16 3 16
10 0 14 5 11 10 -3 6 -15 10 -26 10 -15 0 -20 -6 -17 -22z"/>
<path d="M885 2340 c3 -5 8 -10 11 -10 2 0 4 5 4 10 0 6 -5 10 -11 10 -5 0 -7
-4 -4 -10z"/>
<path d="M950 2320 c0 -5 5 -10 10 -10 6 0 10 5 10 10 0 6 -4 10 -10 10 -5 0
-10 -4 -10 -10z"/>
<path d="M920 2250 c0 -5 9 -12 20 -15 11 -3 20 -15 20 -25 0 -17 18 -30 41
-30 13 0 1 40 -18 59 -17 16 -63 24 -63 11z"/>
<path d="M180 1925 c-12 -19 -20 -41 -17 -48 2 -6 12 6 22 28 10 22 20 43 22
48 2 4 2 7 -1 7 -2 0 -14 -16 -26 -35z"/>
<path d="M40 1588 c0 -7 -3 -24 -7 -37 -6 -22 -4 -23 18 -11 33 17 32 16 19
39 -12 23 -30 28 -30 9z"/>
<path d="M48 1423 c-10 -3 -18 -10 -18 -17 0 -18 29 -56 43 -56 7 0 4 7 -5 14
-25 19 -22 38 5 35 24 -2 57 9 57 20 0 8 -55 10 -82 4z"/>
<path d="M1055 950 c-16 -7 -17 -9 -3 -9 9 -1 20 4 23 9 7 11 7 11 -20 0z"/>
<path d="M965 940 c-18 -8 -17 -9 8 -9 15 -1 27 4 27 9 0 12 -8 12 -35 0z"/>
<path d="M515 860 c-8 -14 4 -50 17 -50 5 0 29 -14 53 -31 41 -29 75 -34 75
-10 0 5 -22 25 -48 44 -68 49 -90 59 -97 47z"/>
<path d="M410 691 c0 -7 -4 -10 -9 -6 -5 3 -12 1 -16 -5 -7 -12 17 -23 39 -18
13 3 13 5 0 22 -8 11 -14 14 -14 7z"/>
<path d="M450 670 c0 -20 101 -32 106 -12 1 7 1 9 -2 4 -6 -10 -84 -2 -84 9 0
5 -4 9 -10 9 -5 0 -10 -4 -10 -10z"/>
<path d="M445 630 c-3 -5 -1 -10 4 -10 6 0 11 5 11 10 0 6 -2 10 -4 10 -3 0
-8 -4 -11 -10z"/>
<path d="M249 619 c-21 -13 -6 -19 26 -10 27 7 28 8 9 13 -12 3 -28 2 -35 -3z"/>
<path d="M220 596 c0 -8 5 -18 10 -21 6 -3 10 1 10 9 0 8 -4 18 -10 21 -5 3
-10 -1 -10 -9z"/>
<path d="M595 489 c-9 -14 -6 -16 30 -23 17 -3 25 -4 18 0 -7 3 -9 12 -6 20 6
17 -32 20 -42 3z"/>
</g>
</svg>
